<mxfile host="app.diagrams.net" agent="Mozilla/5.0 (Windows NT 10.0; Win64; x64; rv:129.0) Gecko/20100101 Firefox/129.0" version="24.7.10">
  <diagram id="C5RBs43oDa-KdzZeNtuy" name="Page-1">
    <mxGraphModel dx="472" dy="781" grid="1" gridSize="10" guides="1" tooltips="1" connect="1" arrows="1" fold="1" page="1" pageScale="1" pageWidth="827" pageHeight="1169" math="0" shadow="0">
      <root>
        <mxCell id="WIyWlLk6GJQsqaUBKTNV-0" />
        <mxCell id="WIyWlLk6GJQsqaUBKTNV-1" parent="WIyWlLk6GJQsqaUBKTNV-0" />
        <mxCell id="eJyt0NOjGTWENJkZvtZS-22" style="edgeStyle=orthogonalEdgeStyle;shape=connector;rounded=0;orthogonalLoop=1;jettySize=auto;html=1;exitX=0.5;exitY=1;exitDx=0;exitDy=0;entryX=0.5;entryY=0;entryDx=0;entryDy=0;strokeColor=default;align=center;verticalAlign=middle;fontFamily=Helvetica;fontSize=11;fontColor=default;labelBackgroundColor=default;endArrow=none;endFill=0;" edge="1" parent="WIyWlLk6GJQsqaUBKTNV-1" source="eJyt0NOjGTWENJkZvtZS-16" target="eJyt0NOjGTWENJkZvtZS-18">
          <mxGeometry relative="1" as="geometry" />
        </mxCell>
        <mxCell id="eJyt0NOjGTWENJkZvtZS-33" value="" style="edgeStyle=orthogonalEdgeStyle;shape=connector;rounded=0;orthogonalLoop=1;jettySize=auto;html=1;strokeColor=default;align=center;verticalAlign=middle;fontFamily=Helvetica;fontSize=11;fontColor=default;labelBackgroundColor=default;endArrow=none;endFill=0;" edge="1" parent="WIyWlLk6GJQsqaUBKTNV-1" source="eJyt0NOjGTWENJkZvtZS-16" target="eJyt0NOjGTWENJkZvtZS-23">
          <mxGeometry relative="1" as="geometry" />
        </mxCell>
        <mxCell id="eJyt0NOjGTWENJkZvtZS-16" value="&lt;div&gt;Обучается&lt;/div&gt;" style="shape=rhombus;perimeter=rhombusPerimeter;whiteSpace=wrap;html=1;align=center;fontFamily=Helvetica;fontSize=11;fontColor=default;labelBackgroundColor=default;" vertex="1" parent="WIyWlLk6GJQsqaUBKTNV-1">
          <mxGeometry x="260" y="370" width="120" height="60" as="geometry" />
        </mxCell>
        <mxCell id="eJyt0NOjGTWENJkZvtZS-18" value="ГРУППА" style="whiteSpace=wrap;html=1;align=center;fontFamily=Helvetica;fontSize=11;fontColor=default;labelBackgroundColor=default;" vertex="1" parent="WIyWlLk6GJQsqaUBKTNV-1">
          <mxGeometry x="270" y="450" width="100" height="40" as="geometry" />
        </mxCell>
        <mxCell id="eJyt0NOjGTWENJkZvtZS-37" style="edgeStyle=orthogonalEdgeStyle;shape=connector;rounded=0;orthogonalLoop=1;jettySize=auto;html=1;exitX=1;exitY=0.5;exitDx=0;exitDy=0;entryX=0;entryY=0.25;entryDx=0;entryDy=0;strokeColor=default;align=center;verticalAlign=middle;fontFamily=Helvetica;fontSize=11;fontColor=default;labelBackgroundColor=default;endArrow=none;endFill=0;" edge="1" parent="WIyWlLk6GJQsqaUBKTNV-1" source="eJyt0NOjGTWENJkZvtZS-20" target="eJyt0NOjGTWENJkZvtZS-23">
          <mxGeometry relative="1" as="geometry" />
        </mxCell>
        <mxCell id="eJyt0NOjGTWENJkZvtZS-20" value="№ паспорта" style="ellipse;whiteSpace=wrap;html=1;align=center;fontFamily=Helvetica;fontSize=11;fontColor=default;labelBackgroundColor=default;" vertex="1" parent="WIyWlLk6GJQsqaUBKTNV-1">
          <mxGeometry x="140" y="270" width="100" height="40" as="geometry" />
        </mxCell>
        <mxCell id="eJyt0NOjGTWENJkZvtZS-23" value="СТУДЕНТ" style="whiteSpace=wrap;html=1;align=center;fontFamily=Helvetica;fontSize=11;fontColor=default;labelBackgroundColor=default;" vertex="1" parent="WIyWlLk6GJQsqaUBKTNV-1">
          <mxGeometry x="270" y="310" width="100" height="40" as="geometry" />
        </mxCell>
        <mxCell id="eJyt0NOjGTWENJkZvtZS-40" value="" style="edgeStyle=orthogonalEdgeStyle;shape=connector;rounded=0;orthogonalLoop=1;jettySize=auto;html=1;strokeColor=default;align=center;verticalAlign=middle;fontFamily=Helvetica;fontSize=11;fontColor=default;labelBackgroundColor=default;endArrow=none;endFill=0;" edge="1" parent="WIyWlLk6GJQsqaUBKTNV-1" source="eJyt0NOjGTWENJkZvtZS-24" target="eJyt0NOjGTWENJkZvtZS-38">
          <mxGeometry relative="1" as="geometry" />
        </mxCell>
        <mxCell id="eJyt0NOjGTWENJkZvtZS-55" value="" style="edgeStyle=orthogonalEdgeStyle;shape=connector;rounded=0;orthogonalLoop=1;jettySize=auto;html=1;strokeColor=default;align=center;verticalAlign=middle;fontFamily=Helvetica;fontSize=11;fontColor=default;labelBackgroundColor=default;endArrow=none;endFill=0;" edge="1" parent="WIyWlLk6GJQsqaUBKTNV-1" source="eJyt0NOjGTWENJkZvtZS-24" target="eJyt0NOjGTWENJkZvtZS-52">
          <mxGeometry relative="1" as="geometry" />
        </mxCell>
        <mxCell id="eJyt0NOjGTWENJkZvtZS-68" style="edgeStyle=orthogonalEdgeStyle;shape=connector;rounded=0;orthogonalLoop=1;jettySize=auto;html=1;exitX=0.5;exitY=0;exitDx=0;exitDy=0;strokeColor=default;align=center;verticalAlign=middle;fontFamily=Helvetica;fontSize=11;fontColor=default;labelBackgroundColor=default;endArrow=none;endFill=0;" edge="1" parent="WIyWlLk6GJQsqaUBKTNV-1" source="eJyt0NOjGTWENJkZvtZS-24" target="eJyt0NOjGTWENJkZvtZS-66">
          <mxGeometry relative="1" as="geometry" />
        </mxCell>
        <mxCell id="eJyt0NOjGTWENJkZvtZS-71" value="" style="edgeStyle=orthogonalEdgeStyle;shape=connector;rounded=0;orthogonalLoop=1;jettySize=auto;html=1;strokeColor=default;align=center;verticalAlign=middle;fontFamily=Helvetica;fontSize=11;fontColor=default;labelBackgroundColor=default;endArrow=none;endFill=0;exitX=1;exitY=0.75;exitDx=0;exitDy=0;" edge="1" parent="WIyWlLk6GJQsqaUBKTNV-1" source="eJyt0NOjGTWENJkZvtZS-24" target="eJyt0NOjGTWENJkZvtZS-70">
          <mxGeometry relative="1" as="geometry" />
        </mxCell>
        <mxCell id="eJyt0NOjGTWENJkZvtZS-74" style="edgeStyle=orthogonalEdgeStyle;shape=connector;rounded=0;orthogonalLoop=1;jettySize=auto;html=1;exitX=1;exitY=0.25;exitDx=0;exitDy=0;entryX=0;entryY=0.5;entryDx=0;entryDy=0;strokeColor=default;align=center;verticalAlign=middle;fontFamily=Helvetica;fontSize=11;fontColor=default;labelBackgroundColor=default;endArrow=none;endFill=0;" edge="1" parent="WIyWlLk6GJQsqaUBKTNV-1" source="eJyt0NOjGTWENJkZvtZS-24" target="eJyt0NOjGTWENJkZvtZS-69">
          <mxGeometry relative="1" as="geometry" />
        </mxCell>
        <mxCell id="eJyt0NOjGTWENJkZvtZS-24" value="ПРЕПОДАВАТЕЛЬ" style="whiteSpace=wrap;html=1;align=center;fontFamily=Helvetica;fontSize=11;fontColor=default;labelBackgroundColor=default;" vertex="1" parent="WIyWlLk6GJQsqaUBKTNV-1">
          <mxGeometry x="570" y="310" width="100" height="40" as="geometry" />
        </mxCell>
        <mxCell id="eJyt0NOjGTWENJkZvtZS-36" value="" style="edgeStyle=orthogonalEdgeStyle;shape=connector;rounded=0;orthogonalLoop=1;jettySize=auto;html=1;strokeColor=default;align=center;verticalAlign=middle;fontFamily=Helvetica;fontSize=11;fontColor=default;labelBackgroundColor=default;endArrow=none;endFill=0;entryX=0;entryY=0.75;entryDx=0;entryDy=0;" edge="1" parent="WIyWlLk6GJQsqaUBKTNV-1" source="eJyt0NOjGTWENJkZvtZS-35" target="eJyt0NOjGTWENJkZvtZS-23">
          <mxGeometry relative="1" as="geometry" />
        </mxCell>
        <mxCell id="eJyt0NOjGTWENJkZvtZS-35" value="ФИО" style="ellipse;whiteSpace=wrap;html=1;align=center;fontFamily=Helvetica;fontSize=11;fontColor=default;labelBackgroundColor=default;" vertex="1" parent="WIyWlLk6GJQsqaUBKTNV-1">
          <mxGeometry x="140" y="350" width="100" height="40" as="geometry" />
        </mxCell>
        <mxCell id="eJyt0NOjGTWENJkZvtZS-39" value="" style="edgeStyle=orthogonalEdgeStyle;shape=connector;rounded=0;orthogonalLoop=1;jettySize=auto;html=1;strokeColor=default;align=center;verticalAlign=middle;fontFamily=Helvetica;fontSize=11;fontColor=default;labelBackgroundColor=default;endArrow=none;endFill=0;" edge="1" parent="WIyWlLk6GJQsqaUBKTNV-1" source="eJyt0NOjGTWENJkZvtZS-38" target="eJyt0NOjGTWENJkZvtZS-23">
          <mxGeometry relative="1" as="geometry" />
        </mxCell>
        <mxCell id="eJyt0NOjGTWENJkZvtZS-45" value="" style="edgeStyle=orthogonalEdgeStyle;shape=connector;rounded=0;orthogonalLoop=1;jettySize=auto;html=1;strokeColor=default;align=center;verticalAlign=middle;fontFamily=Helvetica;fontSize=11;fontColor=default;labelBackgroundColor=default;endArrow=none;endFill=0;" edge="1" parent="WIyWlLk6GJQsqaUBKTNV-1" source="eJyt0NOjGTWENJkZvtZS-38" target="eJyt0NOjGTWENJkZvtZS-44">
          <mxGeometry relative="1" as="geometry" />
        </mxCell>
        <mxCell id="eJyt0NOjGTWENJkZvtZS-38" value="Relationship" style="shape=rhombus;perimeter=rhombusPerimeter;whiteSpace=wrap;html=1;align=center;fontFamily=Helvetica;fontSize=11;fontColor=default;labelBackgroundColor=default;" vertex="1" parent="WIyWlLk6GJQsqaUBKTNV-1">
          <mxGeometry x="410" y="300" width="120" height="60" as="geometry" />
        </mxCell>
        <mxCell id="eJyt0NOjGTWENJkZvtZS-44" value="ДИСЦИПЛИНА" style="whiteSpace=wrap;html=1;align=center;fontFamily=Helvetica;fontSize=11;fontColor=default;labelBackgroundColor=default;" vertex="1" parent="WIyWlLk6GJQsqaUBKTNV-1">
          <mxGeometry x="420" y="380" width="100" height="40" as="geometry" />
        </mxCell>
        <mxCell id="eJyt0NOjGTWENJkZvtZS-51" style="edgeStyle=orthogonalEdgeStyle;shape=connector;rounded=0;orthogonalLoop=1;jettySize=auto;html=1;exitX=0.5;exitY=1;exitDx=0;exitDy=0;entryX=0.5;entryY=0;entryDx=0;entryDy=0;strokeColor=default;align=center;verticalAlign=middle;fontFamily=Helvetica;fontSize=11;fontColor=default;labelBackgroundColor=default;endArrow=none;endFill=0;" edge="1" parent="WIyWlLk6GJQsqaUBKTNV-1" source="eJyt0NOjGTWENJkZvtZS-57" target="eJyt0NOjGTWENJkZvtZS-23">
          <mxGeometry relative="1" as="geometry" />
        </mxCell>
        <mxCell id="eJyt0NOjGTWENJkZvtZS-65" style="edgeStyle=orthogonalEdgeStyle;shape=connector;rounded=0;orthogonalLoop=1;jettySize=auto;html=1;exitX=1;exitY=0.5;exitDx=0;exitDy=0;strokeColor=default;align=center;verticalAlign=middle;fontFamily=Helvetica;fontSize=11;fontColor=default;labelBackgroundColor=default;endArrow=none;endFill=0;" edge="1" parent="WIyWlLk6GJQsqaUBKTNV-1" source="eJyt0NOjGTWENJkZvtZS-50" target="eJyt0NOjGTWENJkZvtZS-41">
          <mxGeometry relative="1" as="geometry" />
        </mxCell>
        <mxCell id="eJyt0NOjGTWENJkZvtZS-50" value="ДИРЕКТОР" style="whiteSpace=wrap;html=1;align=center;fontFamily=Helvetica;fontSize=11;fontColor=default;labelBackgroundColor=default;" vertex="1" parent="WIyWlLk6GJQsqaUBKTNV-1">
          <mxGeometry x="270" y="150" width="100" height="40" as="geometry" />
        </mxCell>
        <mxCell id="eJyt0NOjGTWENJkZvtZS-56" value="" style="edgeStyle=orthogonalEdgeStyle;shape=connector;rounded=0;orthogonalLoop=1;jettySize=auto;html=1;strokeColor=default;align=center;verticalAlign=middle;fontFamily=Helvetica;fontSize=11;fontColor=default;labelBackgroundColor=default;endArrow=none;endFill=0;" edge="1" parent="WIyWlLk6GJQsqaUBKTNV-1" source="eJyt0NOjGTWENJkZvtZS-52" target="eJyt0NOjGTWENJkZvtZS-44">
          <mxGeometry relative="1" as="geometry" />
        </mxCell>
        <mxCell id="eJyt0NOjGTWENJkZvtZS-52" value="Нагрузка" style="shape=rhombus;perimeter=rhombusPerimeter;whiteSpace=wrap;html=1;align=center;fontFamily=Helvetica;fontSize=11;fontColor=default;labelBackgroundColor=default;" vertex="1" parent="WIyWlLk6GJQsqaUBKTNV-1">
          <mxGeometry x="560" y="370" width="120" height="60" as="geometry" />
        </mxCell>
        <mxCell id="eJyt0NOjGTWENJkZvtZS-58" value="" style="edgeStyle=orthogonalEdgeStyle;shape=connector;rounded=0;orthogonalLoop=1;jettySize=auto;html=1;exitX=0.5;exitY=1;exitDx=0;exitDy=0;entryX=0.5;entryY=0;entryDx=0;entryDy=0;strokeColor=default;align=center;verticalAlign=middle;fontFamily=Helvetica;fontSize=11;fontColor=default;labelBackgroundColor=default;endArrow=none;endFill=0;" edge="1" parent="WIyWlLk6GJQsqaUBKTNV-1" source="eJyt0NOjGTWENJkZvtZS-60" target="eJyt0NOjGTWENJkZvtZS-57">
          <mxGeometry relative="1" as="geometry">
            <mxPoint x="320" y="230" as="sourcePoint" />
            <mxPoint x="320" y="310" as="targetPoint" />
          </mxGeometry>
        </mxCell>
        <mxCell id="eJyt0NOjGTWENJkZvtZS-57" value="&lt;div style=&quot;font-size: 16px;&quot;&gt;&lt;font style=&quot;font-size: 16px;&quot;&gt;*&lt;/font&gt;&lt;/div&gt;" style="text;html=1;align=center;verticalAlign=middle;resizable=0;points=[];autosize=1;strokeColor=none;fillColor=none;fontFamily=Helvetica;fontSize=11;fontColor=default;labelBackgroundColor=default;" vertex="1" parent="WIyWlLk6GJQsqaUBKTNV-1">
          <mxGeometry x="305" y="270" width="30" height="30" as="geometry" />
        </mxCell>
        <mxCell id="eJyt0NOjGTWENJkZvtZS-61" value="" style="edgeStyle=orthogonalEdgeStyle;shape=connector;rounded=0;orthogonalLoop=1;jettySize=auto;html=1;exitX=0.5;exitY=1;exitDx=0;exitDy=0;entryX=0.5;entryY=0;entryDx=0;entryDy=0;strokeColor=default;align=center;verticalAlign=middle;fontFamily=Helvetica;fontSize=11;fontColor=default;labelBackgroundColor=default;endArrow=none;endFill=0;" edge="1" parent="WIyWlLk6GJQsqaUBKTNV-1" source="eJyt0NOjGTWENJkZvtZS-50" target="eJyt0NOjGTWENJkZvtZS-60">
          <mxGeometry relative="1" as="geometry">
            <mxPoint x="320" y="190" as="sourcePoint" />
            <mxPoint x="320" y="270" as="targetPoint" />
          </mxGeometry>
        </mxCell>
        <mxCell id="eJyt0NOjGTWENJkZvtZS-60" value="1" style="text;html=1;align=center;verticalAlign=middle;resizable=0;points=[];autosize=1;strokeColor=none;fillColor=none;fontFamily=Helvetica;fontSize=11;fontColor=default;labelBackgroundColor=default;" vertex="1" parent="WIyWlLk6GJQsqaUBKTNV-1">
          <mxGeometry x="305" y="200" width="30" height="30" as="geometry" />
        </mxCell>
        <mxCell id="eJyt0NOjGTWENJkZvtZS-41" value="&lt;div&gt;1&lt;/div&gt;" style="text;html=1;align=center;verticalAlign=middle;resizable=0;points=[];autosize=1;strokeColor=none;fillColor=none;fontFamily=Helvetica;fontSize=11;fontColor=default;labelBackgroundColor=default;" vertex="1" parent="WIyWlLk6GJQsqaUBKTNV-1">
          <mxGeometry x="390" y="155" width="30" height="30" as="geometry" />
        </mxCell>
        <mxCell id="eJyt0NOjGTWENJkZvtZS-67" value="" style="edgeStyle=orthogonalEdgeStyle;shape=connector;rounded=0;orthogonalLoop=1;jettySize=auto;html=1;exitX=1;exitY=0.5;exitDx=0;exitDy=0;entryX=0.5;entryY=0;entryDx=0;entryDy=0;strokeColor=default;align=center;verticalAlign=middle;fontFamily=Helvetica;fontSize=11;fontColor=default;labelBackgroundColor=default;endArrow=none;endFill=0;" edge="1" parent="WIyWlLk6GJQsqaUBKTNV-1" source="eJyt0NOjGTWENJkZvtZS-41" target="eJyt0NOjGTWENJkZvtZS-66">
          <mxGeometry relative="1" as="geometry">
            <mxPoint x="420" y="170" as="sourcePoint" />
            <mxPoint x="620" y="310" as="targetPoint" />
          </mxGeometry>
        </mxCell>
        <mxCell id="eJyt0NOjGTWENJkZvtZS-66" value="&lt;div style=&quot;font-size: 16px;&quot;&gt;&lt;font style=&quot;font-size: 16px;&quot;&gt;*&lt;/font&gt;&lt;/div&gt;" style="text;html=1;align=center;verticalAlign=middle;resizable=0;points=[];autosize=1;strokeColor=none;fillColor=none;fontFamily=Helvetica;fontSize=11;fontColor=default;labelBackgroundColor=default;" vertex="1" parent="WIyWlLk6GJQsqaUBKTNV-1">
          <mxGeometry x="605" y="270" width="30" height="30" as="geometry" />
        </mxCell>
        <mxCell id="eJyt0NOjGTWENJkZvtZS-69" value="№ паспорта" style="ellipse;whiteSpace=wrap;html=1;align=center;fontFamily=Helvetica;fontSize=11;fontColor=default;labelBackgroundColor=default;" vertex="1" parent="WIyWlLk6GJQsqaUBKTNV-1">
          <mxGeometry x="720" y="270" width="100" height="40" as="geometry" />
        </mxCell>
        <mxCell id="eJyt0NOjGTWENJkZvtZS-70" value="ФИО" style="ellipse;whiteSpace=wrap;html=1;align=center;fontFamily=Helvetica;fontSize=11;fontColor=default;labelBackgroundColor=default;" vertex="1" parent="WIyWlLk6GJQsqaUBKTNV-1">
          <mxGeometry x="720" y="350" width="100" height="40" as="geometry" />
        </mxCell>
      </root>
    </mxGraphModel>
  </diagram>
</mxfile>
